<?xml version="1.0"?>
<svg xmlns:rdf="http://www.w3.org/1999/02/22-rdf-syntax-ns#" xmlns="http://www.w3.org/2000/svg" xmlns:cc="http://creativecommons.org/ns#" xmlns:xlink="http://www.w3.org/1999/xlink" xmlns:dc="http://purl.org/dc/elements/1.1/" xmlns:svg="http://www.w3.org/2000/svg" id="svg3889" viewBox="0 0 640 480" version="1.1">
  <title id="title4861">dollars</title>
  <defs id="defs3891">
    <linearGradient id="linearGradient3842" x1="147.19" gradientUnits="userSpaceOnUse" x2="278.68" y1="182.94" y2="184.33">
      <stop id="stop3838" stop-color="#fdd99b" offset="0"/>
      <stop id="stop3840" stop-color="#fdd99b" stop-opacity="0" offset="1"/>
    </linearGradient>
    <filter id="filter3844">
      <feGaussianBlur id="feGaussianBlur3846" stdDeviation="2.9216403"/>
    </filter>
    <filter id="filter3949">
      <feGaussianBlur id="feGaussianBlur3951" stdDeviation="2.3943727"/>
    </filter>
  </defs>
  <g id="layer1">
    <path id="path3799" stroke="#514848" stroke-width="2.2783" fill="#d9bb7a" d="m204.79 49.17c-19.351 0.07619-33.236 1.4226-33.236 1.4226s-49.641 16.758-10.852 17.135c30.799 0.2997 75.51 51.975 100.29 103.3-3.7654-3.0378-7.4158-5.6234-10.722-7.1128-17.333-7.8073-156.98 80.763-161.94 155.32-2.5102 37.786 38.353 80.97 70.942 88.845 36.877 8.9113 0.63333 9.4454 3.952 12.092 23.596 18.815 55.018 4.7495 90.216 8.3737 71.601 7.3724 90.749 1.4298 106.15 0 0 0 66.643 10.47 90.216-8.3737 3.3129-2.6483-32.958-3.1803 3.9196-12.092 32.589-7.8751 73.452-51.059 70.942-88.845-4.9528-74.554-144.6-163.12-161.94-155.32-3.3167 1.4939-6.9446 4.095-10.722 7.1451 24.778-51.331 69.486-103.03 100.29-103.33 38.789-0.37747-10.819-17.135-10.819-17.135s-72.499-6.8914-117.17 9.8932c-6.6534 2.5001-12.566 4.32-17.784 5.7549-5.2249-1.436-11.151-3.2501-17.817-5.7549-25.126-9.4414-59.052-11.414-83.932-11.316z"/>
    <path id="path3812" opacity=".34146" d="m263.78 181.54c0 32.765-34.734 59.327-77.581 59.327s-77.581-26.562-77.581-59.327 34.734-59.327 77.581-59.327 77.581 26.561 77.581 59.327z" transform="matrix(1.0793 0 0 1.4405 -20.936 54.274)" filter="url(#filter3844)" stroke-width="0" fill="url(#linearGradient3842)"/>
    <path id="path3848" opacity=".34146" d="m263.78 181.54c0 32.765-34.734 59.327-77.581 59.327s-77.581-26.562-77.581-59.327 34.734-59.327 77.581-59.327 77.581 26.561 77.581 59.327z" transform="matrix(-1.0793 0 0 1.4405 634.54 58.051)" filter="url(#filter3844)" stroke-width="0" fill="url(#linearGradient3842)"/>
    <path id="path3852" stroke="#846c42" stroke-width="7.8533" fill="none" d="m245.72 156c35.946 16.282-19.758 5.9182-16.613 15.033 7.4993 8.1402 19.655 10.154 30.135 7.9941 88.495-16.084 194.94-3.3415 141.52 6.1017 18.964-52.732-218.73 24.173-202.47 27.731 12.977-4.4204 188.81-56.533 203.02-53.73 9.863-0.50148 11.596-17.656 1.5896-19.458-14.631-1.0152-25.363 10.582-35.907 18.875 8.264 6.1231-17.841 29.647-63.542 50.88-3.2907 2.6403-6.3558 5.5727-9.0413 8.8282"/>
    <path id="path3926" stroke="#b1ab82" stroke-width="6.4483" fill="#333" d="m407.55 50.889c-6.5585 0.86753-13.266-0.34701-19.862 0-5.3763 0.28285-10.748 0.63526-16.079 1.1445-0.69634 0.06652-1.1962 0.50212-1.8916 0.57224-1.2439 0.12544-2.5425-0.13649-3.7833 0-2.2582 0.24841-4.394 0.80769-6.6207 1.1445-1.5596 0.2359-3.1295 0.47546-4.729 0.57224-1.5685 0.0949-3.1527 0-4.7291 0h-6.6207c-3.3067 0-4.8413-0.09407-8.5123 0.57224-1.3505 0.24512-2.4631 0.84496-3.7833 1.1445-1.2171 0.27615-2.5661 0.2961-3.7832 0.57224-1.3202 0.29953-2.5222 0.76299-3.7832 1.1445-0.63054 0.19075-1.3277 0.31633-1.8916 0.57224-4.0909 2.4751 0.25056 0.08969-3.7833 1.7167-0.37097 0.14964-0.63054 0.3815-0.94581 0.57224-0.31527 0.19075-0.51327 0.50682-0.94581 0.57224-0.91757 0.13879-1.9199-0.13879-2.8374 0-0.23488 0.03553-1.5599 1.0441-1.8916 1.1445-0.28199 0.0853-0.63054 0-0.94581 0-0.31527 0.19075-0.57484 0.42261-0.9458 0.57224-2.4793 1-1.6529 0.21389-4.7291 1.1445-0.3988 0.12064-0.54703 0.4516-0.94581 0.57224-0.28199 0.0853-0.63055 0-0.94583 0-0.63054 0.19075-1.305 0.33565-1.8916 0.57224-0.37098 0.14963-0.54702 0.4516-0.94581 0.57224-0.28199 0.0853-0.72288-0.13488-0.94582 0-0.22293 0.13488 0.22294 0.43736 0 0.57224-0.44586 0.26976-1.4458-0.26976-1.8916 0-0.22292 0.13488 0.141 0.40163 0 0.57224-0.19938 0.24128-0.74641 0.33096-0.94581 0.57224-0.14099 0.17061 0 0.3815 0 0.57224v1.1445c0 0.19075-0.14099 0.40163 0 0.57224 0.1994 0.24128 0.74643 0.33096 0.94581 0.57224 0.141 0.17061-0.14099 0.40163 0 0.57224 0.1994 0.24128 0.74642 0.33096 0.94582 0.57224 0.14099 0.17061-0.22293 0.43736 0 0.57224s0.72288-0.13488 0.94581 0c0.22294 0.13488-0.22293 0.43736 0 0.57224 0.22294 0.13488 0.63055 0 0.94582 0h7.5665c1.2611 0 2.5299 0.08426 3.7832 0 1.5978-0.10741 3.1281-0.48419 4.7291-0.57224 10.716-0.58941 0.4885 0.85648 12.296-0.57224 0.97761-0.1183 1.8825-0.39892 2.8374-0.57224 2.1984-0.39903 4.403-0.78668 6.6207-1.1445 7.233-1.167 7.1333-1.1833 14.187-1.7167 2.8328-0.21424 5.6749-0.3815 8.5123-0.57224 2.8374-0.19075 5.6647-0.44918 8.5123-0.57224 1.5723-0.06795 3.1527 0 4.7291 0 5.9902 0 38.923-7.5236 44.913-7.5236h9.4581c3.1527 0 6.3098-0.10025 9.4581 0 2.851 0.09078 5.6673 0.4288 8.5123 0.57224 0.94255 0.04753 1.8916 0 2.8374 0h9.4581c1.3534 0 2.1416 0.26976 2.8374-0.57224 0.63054-0.76299-0.31527-0.57224-0.94581-0.57224h-0.9458c-0.31527 0-0.94582 0.19075-0.94582 0s1.2611 0 0.94582 0h-15.133c-0.31527 0-0.72288-0.13488-0.94581 0s0 0.3815 0 0.57224"/>
    <path id="path3928" stroke="#a9a67b" stroke-width="7.6636" fill="#333" d="m263.26 55.52c-18.787-7.4616-137.04-5.8316-118.35 7.4421 49.102 3.017 141.77 50.791 196.61 30.167 59.283-13.799-12.745-33.31-39.264-23.787-14.322-0.22677-29.626-3.864-38.994-13.822z"/>
    <path id="path3947" d="m227.21 12.963c34.677 15.737-19.061 5.7204-16.026 14.531 7.2345 7.868 18.961 9.8146 29.071 7.7268 85.37-15.547 188.05-3.2298 136.52 5.8977 18.294-50.969-211 23.365-195.32 26.804 12.519-4.2726 182.14-54.644 195.85-51.934 9.5148-0.48471 11.187-17.066 1.5335-18.808-14.114-0.98122-24.468 10.228-34.639 18.244 7.9722 5.9184-17.211 28.656-61.299 49.179-3.1745 2.552-6.1314 5.3864-8.7221 8.5331" transform="matrix(1.0366 0 0 1.0346 10.191 142.59)" filter="url(#filter3949)" stroke="#4d4841" stroke-dasharray="7.583, 7.583" stroke-width="7.583" fill="none"/>
    <g id="text4845" opacity=".57073" stroke="#835719" stroke-width="1.0356" transform="scale(1.2911 .77456)">
      <path id="path4866" style="" d="m227.95 495.48v-21.045c-10.523-1.3251-19.077-3.6829-25.663-7.0735-6.5864-3.3906-12.276-8.8662-17.07-16.427-4.7936-7.5606-7.5801-16.797-8.3596-27.709l21.162-3.9752c1.6368 11.302 4.5208 19.603 8.6519 24.903 5.9238 7.4827 13.017 11.653 21.279 12.51v-66.994c-8.6519-1.6368-17.499-4.9884-26.54-10.055-6.7033-3.7413-11.867-8.9246-15.492-15.55-3.6244-6.6252-5.4367-14.147-5.4366-22.565-0.00001-14.965 5.3002-27.086 15.901-36.361 7.0929-6.2354 17.615-10.055 31.568-11.458v-10.055h12.393v10.055c12.237 1.1694 21.941 4.7548 29.112 10.756 9.1974 7.6388 14.731 18.122 16.602 31.451l-21.747 3.2737c-1.2472-8.262-3.8389-14.595-7.775-18.999-3.9363-4.4037-9.334-7.3072-16.193-8.7103v60.68c10.6 2.6502 17.615 4.7158 21.045 6.1966 6.5473 2.884 11.886 6.3916 16.018 10.523 4.131 4.1312 7.3072 9.0417 9.5288 14.732 2.2213 5.69 3.332 11.848 3.3322 18.473-0.00013 14.576-4.6378 26.735-13.913 36.478-9.2755 9.7431-21.279 14.965-36.011 15.667v21.279zm0-184.26c-8.1842 1.2473-14.634 4.521-19.35 9.821-4.7157 5.3004-7.0735 11.575-7.0735 18.824-0.00004 7.171 2.007 13.173 6.0212 18.005 4.0141 4.8327 10.815 8.691 20.402 11.575zm12.393 145.45c8.1841-1.0133 14.946-4.5598 20.285-10.639 5.3391-6.0797 8.0087-13.601 8.0088-22.565-0.0001-7.6385-1.8903-13.777-5.6705-18.414-3.7804-4.6376-11.322-8.7882-22.623-12.452z"/>
    </g>
  </g>
  <metadata>
    <rdf:RDF>
      <cc:Work>
        <dc:format>image/svg+xml</dc:format>
        <dc:type rdf:resource="http://purl.org/dc/dcmitype/StillImage"/>
        <cc:license rdf:resource="http://creativecommons.org/licenses/publicdomain/"/>
        <dc:publisher>
          <cc:Agent rdf:about="http://openclipart.org/">
            <dc:title>Openclipart</dc:title>
          </cc:Agent>
        </dc:publisher>
        <dc:title>dollar bag</dc:title>
        <dc:date>2010-10-06T21:06:57</dc:date>
        <dc:description>USA, clip art, clipart, currency, dollar, money bag, </dc:description>
        <dc:source>http://openclipart.org/detail/88975/dollar-bag-by-netalloy</dc:source>
        <dc:creator>
          <cc:Agent>
            <dc:title>netalloy</dc:title>
          </cc:Agent>
        </dc:creator>
        <dc:subject>
          <rdf:Bag>
            <rdf:li>USA</rdf:li>
            <rdf:li>clip art</rdf:li>
            <rdf:li>clipart</rdf:li>
            <rdf:li>currency</rdf:li>
            <rdf:li>dollar</rdf:li>
            <rdf:li>money bag</rdf:li>
          </rdf:Bag>
        </dc:subject>
      </cc:Work>
      <cc:License rdf:about="http://creativecommons.org/licenses/publicdomain/">
        <cc:permits rdf:resource="http://creativecommons.org/ns#Reproduction"/>
        <cc:permits rdf:resource="http://creativecommons.org/ns#Distribution"/>
        <cc:permits rdf:resource="http://creativecommons.org/ns#DerivativeWorks"/>
      </cc:License>
    </rdf:RDF>
  </metadata>
</svg>
